<svg xmlns="http://www.w3.org/2000/svg" version="1.0" viewBox="0 0 260 260"><path d="M0 130v130h260V0H0v130zm70-85.8c.5 1.3 5.5 27 11 57.3 5.5 30.2 10.4 55.8 10.8 56.8.5 1.2 4.4-10.3 11.6-34 6-19.7 11.5-37 12.2-38.5 2.1-4.1 4.3-4.8 14.8-4.8 8.4 0 9.8.2 12 2.2 2 1.9 4.7 9.5 13.7 38.8 6.2 20.1 11.5 36.8 11.8 37.2.4.4 5.3-25 11-56.5 6.7-37 10.9-57.8 11.9-59 1.3-1.5 3.5-1.7 16.2-1.7 15.7 0 17 .4 17 5.1 0 3.8-29.8 164.9-31.1 168-1.6 4-4.9 4.9-17.4 4.9-10.4 0-11.6-.2-13.9-2.3-2-1.7-5.7-11.6-17-45.2-13.6-40.5-14.5-42.8-15.6-40-.7 1.6-7.2 21-14.6 43-10.7 31.9-13.9 40.5-15.9 42.2-2.4 2.1-3.6 2.3-14.4 2.3-10.4 0-12.1-.3-14.4-2-1.4-1.1-2.8-2.8-3.1-3.8C65.5 210.8 36 49.2 36 46.8c0-4.4 1.4-4.8 17.7-4.8 15 0 15.4.1 16.3 2.2z"/></svg>